<svg xmlns="http://www.w3.org/2000/svg" xmlns:xlink="http://www.w3.org/1999/xlink" height="800" width="1200" enable-background="new 0 0 1190.551 841.891" viewBox="-65.27205 -75 565.6911 450"><g transform="translate(-4.987 -7.56) scale(.37369)"><defs><path id="a" d="M13.345 20.233v720.616l82.197 82.197h128.801V691.532h2.712l131.514 131.514h131.578l16.407-16.4 16.408 16.4h227.436v-90.344l90.343 90.344h337.077v-375.39l-82.197-82.2h-98.57l49.252-49.241V102.428l-82.196-82.195H835.306v19.152l-19.152-19.152H687.353v19.152l-19.152-19.152z"/></defs><clipPath id="b"><use height="100%" width="100%" xlink:href="#a" overflow="visible"/></clipPath><linearGradient id="c" gradientUnits="userSpaceOnUse" x1="170.565" y1="716.852" x2="178.781" y2="716.852" gradientTransform="scale(179.77207 -179.77207) rotate(-35.149 -1046.43 627.586)"><stop offset="0" stop-color="#f7941e"/><stop offset=".006" stop-color="#f7941e"/><stop offset=".393" stop-color="#be1e2d"/><stop offset="1"/></linearGradient><path clip-path="url(#b)" fill="url(#c)" d="M-364.556 556.968L399.29-527.917 1555.719 286.31 791.873 1371.191z"/></g><g transform="translate(-4.987 -7.56) scale(.37369)"><defs><path id="d" d="M13.345 20.233v720.616l82.197 82.197h128.801V691.532h2.712l131.514 131.514h131.578l16.407-16.4 16.408 16.4h227.436v-90.344l90.343 90.344h337.077v-375.39l-82.197-82.2h-98.57l49.252-49.241V102.428l-82.196-82.195H835.306v19.152l-19.152-19.152H687.353v19.152l-19.152-19.152z"/></defs><clipPath id="f"><use height="100%" width="100%" xlink:href="#d" overflow="visible"/></clipPath><defs><filter id="e" filterUnits="userSpaceOnUse" x="-388.059" y="-562.003" width="1967.281" height="1967.284"><feColorMatrix values="1 0 0 0 0 0 1 0 0 0 0 0 1 0 0 0 0 0 1 0"/></filter></defs><mask maskUnits="userSpaceOnUse" x="-388.059" y="-562.003" width="1967.281" height="1967.284" id="h"><g filter="url(#e)"><radialGradient id="g" cx="172.155" cy="717.06" r="8.219" gradientTransform="scale(-156.02099 156.02099) rotate(45 948.04 142.539)" gradientUnits="userSpaceOnUse"><stop offset="0" stop-color="gray"/><stop offset=".804"/><stop offset="1"/></radialGradient><path clip-path="url(#f)" fill="url(#g)" d="M595.582-562.003l983.64 983.636-983.64 983.648-983.641-983.648z"/></g></mask><radialGradient id="i" cx="172.155" cy="717.06" r="8.219" gradientTransform="scale(-156.02099 156.02099) rotate(45 948.04 142.539)" gradientUnits="userSpaceOnUse"><stop offset="0" stop-color="#27aae1"/><stop offset=".804" stop-color="#0f3261"/><stop offset="1" stop-color="#0f3261"/></radialGradient><path clip-path="url(#f)" mask="url(#h)" fill="url(#i)" d="M595.582-562.003l983.64 983.636-983.64 983.648-983.641-983.648z"/></g><path d="M168.426 229.861H137.71v-92.147h-30.715v122.862h36.859l24.572-24.572v24.572h30.716V137.714h-30.716zm168.935 0l-30.715 30.715h89.075V137.714h-30.716v92.147zM8.705 137.714v122.862h30.716v-49.144h49.144v-24.573H39.421V168.43h61.43v-12.286l-18.429-18.43H8.705zm98.29-6.143h30.715V39.425h30.716V70.14H137.71l30.716 30.716v30.715h30.715V8.71h-92.146zm-98.29 0h30.716V39.425h30.715v15.357L39.421 85.498l61.43 61.431V107L77.816 83.962l23.037-23.036V8.709H8.705zM236 214.503V168.43h30.715v15.358L236 214.503l46.073 46.074h15.358l12.286-12.287-35.322-35.322 23.036-23.037v-52.217h-92.147v122.862H236zm98.29-76.789h-30.716v52.216l24.573 24.573h36.859l-30.716-30.716v-46.073zM260.572 107v24.572h30.716l55.288-55.288V8.71H315.86v92.147h-24.573V8.709h-30.715v92.147H236V8.709h-30.715v122.862H236z" fill="#fff"/></svg>